# xmcd CD database file
#
# Track frame offsets:
#	150
#	15334
#	29512
#	49105
#	66622
#	85730
#	109580
#	129262
#	145750
#	160845
#	183945
#	202765
#	220342
#	242942
#	259909
#
# Disc length: 3821 seconds
#
# Revision: 4
# Processed by: cddbd v1.5.2PL0 Copyright (c) Steve Scherf et al.
# Submitted via: CDex 1.51
#
DISCID=cd0eeb0f
DTITLE=Lonnie Brooks, Long John Hunter and Phillip Walker - Lone Star Shootout
DYEAR=1999
DGENRE=Blues
TTITLE0=Roll, Roll, Roll
TTITLE1=Boogie Rambler
TTITLE2=A Little More Time
TTITLE3=Bon Ton Roulet
TTITLE4=Feel Good Doin' Bad
TTITLE5=Alligators Around My Door
TTITLE6=Street Walking Woman
TTITLE7=This Should Go On Forever
TTITLE8=You're Playin' Hooky
TTITLE9=Born In Louisiana
TTITLE10=Quit My Baby
TTITLE11=I Can't Stand It No More
TTITLE12=I Met The Blues In Person
TTITLE13=It's Mighty Crazy
TTITLE14=Two Trains Running
EXTD=YEAR: 1999
EXTT0=
EXTT1=
EXTT2=
EXTT3=
EXTT4=
EXTT5=
EXTT6=
EXTT7=
EXTT8=
EXTT9=
EXTT10=
EXTT11=
EXTT12=
EXTT13=
EXTT14=
PLAYORDER=
